<?xml version="1.0" encoding="iso-8859-1"?>
<!-- Generator: Adobe Illustrator 19.0.0, SVG Export Plug-In . SVG Version: 6.00 Build 0)  -->
<svg version="1.1" id="Layer_1" xmlns="http://www.w3.org/2000/svg" xmlns:xlink="http://www.w3.org/1999/xlink" x="0px" y="0px"
	 viewBox="0 0 512 512" style="enable-background:new 0 0 512 512;" xml:space="preserve">
<g>
	<g>
		<path d="M0,25.6V128h499.2V25.6H0z M249.6,96H70.4V57.6h179.2V96z M345.6,96c-10.604,0-19.2-8.596-19.2-19.2s8.596-19.2,19.2-19.2
			s19.2,8.596,19.2,19.2S356.203,96,345.6,96z M409.6,96c-10.604,0-19.2-8.596-19.2-19.2s8.596-19.2,19.2-19.2s19.2,8.596,19.2,19.2
			S420.203,96,409.6,96z"/>
	</g>
</g>
<g>
	<g>
		<path d="M0,166.4v256h308.721c-0.997-6.257-1.521-12.667-1.521-19.2c0-67.05,54.55-121.6,121.6-121.6
			c26.216,0,50.519,8.341,70.4,22.504V166.4H0z"/>
	</g>
</g>
<g>
	<g>
		<path d="M428.8,320c-45.876,0-83.2,37.323-83.2,83.2c0,45.876,37.324,83.2,83.2,83.2s83.2-37.323,83.2-83.2
			C512,357.323,474.676,320,428.8,320z M473.6,422.4H448V448h-38.4v-25.6H384V384h25.6v-25.6H448V384h25.6V422.4z"/>
	</g>
</g>
<g>
</g>
<g>
</g>
<g>
</g>
<g>
</g>
<g>
</g>
<g>
</g>
<g>
</g>
<g>
</g>
<g>
</g>
<g>
</g>
<g>
</g>
<g>
</g>
<g>
</g>
<g>
</g>
<g>
</g>
</svg>
